<svg width="54" height="51" viewBox="0 0 54 51" fill="none" xmlns="http://www.w3.org/2000/svg">
<path d="M5.35381 50.9999H31.1058C32.6506 51.0008 34.1772 50.6682 35.5807 50.0251C36.9841 49.382 38.231 48.4436 39.2356 47.2746L52.8933 31.4026C53.1793 31.0708 53.379 30.6741 53.4748 30.2473C53.5706 29.8205 53.5595 29.3768 53.4426 28.9553C53.3257 28.5338 53.1066 28.1474 52.8044 27.8301C52.5023 27.5128 52.1265 27.2744 51.7101 27.1359L46.4419 25.3866C45.1686 24.9743 43.813 24.881 42.4949 25.115C41.1768 25.3489 39.9369 25.9029 38.8849 26.7279L30.3589 33.5199L28.7073 30.2266C27.8224 28.4514 26.4563 26.9584 24.7635 25.9168C23.0707 24.8752 21.1189 24.3267 19.1293 24.3333H5.35381C2.40116 24.3333 -3.8147e-05 26.7253 -3.8147e-05 29.6666V45.6666C-3.8147e-05 48.6079 2.40116 50.9999 5.35381 50.9999ZM5.35381 29.6666H19.1293C21.1717 29.6666 23.0054 30.7946 23.9183 32.6133L25.1149 34.9999H13.3846V40.3333H29.4836C29.8954 40.3279 30.3004 40.2275 30.6668 40.0399L30.6748 40.0373L30.6855 40.0319H30.6936L30.6989 40.0293H30.7096L30.7123 40.0266C30.7364 40.0346 30.7203 40.0239 30.7203 40.0239C30.7471 40.0239 30.7257 40.0213 30.7257 40.0213H30.7284L30.7337 40.0186L30.7417 40.0159L30.7471 40.0133L30.7525 40.0106L30.7605 40.0079L30.7658 40.0053C30.7739 40.0053 30.7685 40.0026 30.7712 40.0026L30.7792 39.9973L30.7846 39.9946L30.7899 39.9919L30.798 39.9893L30.8033 39.9866H30.806L30.8113 39.9839H30.814L30.8194 39.9813L30.8247 39.9786C30.8488 39.9759 30.8328 39.9759 30.8328 39.9759L30.8381 39.9733C30.9413 39.9113 31.0397 39.8417 31.1326 39.7653L42.2311 30.9199C42.9325 30.3653 43.8988 30.1919 44.7474 30.4746L46.2385 30.9706L35.1747 43.8319C34.6658 44.4076 34.0398 44.8689 33.3383 45.1852C32.6368 45.5015 31.8758 45.6656 31.1058 45.6666H5.35381V29.6666ZM37.4769 0.333277H37.4314C36.995 0.33861 34.7384 0.437277 32.123 2.21328C29.5773 0.485277 27.3742 0.34661 26.8549 0.335944L26.7745 0.333277H26.7638C24.6196 0.333277 22.6012 1.16794 21.0914 2.67461C19.5763 4.18661 18.7384 6.19461 18.7384 8.33328C18.7384 10.4719 19.5763 12.4799 21.0433 13.9439L30.1823 23.5066C30.4337 23.7666 30.7353 23.9734 31.0688 24.1146C31.4024 24.2557 31.7612 24.3284 32.1236 24.3281C32.486 24.3279 32.8447 24.2548 33.1781 24.1131C33.5115 23.9715 33.8127 23.7643 34.0638 23.5039L43.1546 13.9893C44.6725 12.4799 45.5077 10.4719 45.5077 8.33328C45.5077 6.19461 44.6698 4.18661 43.1573 2.67728C42.414 1.93206 41.5297 1.34117 40.5555 0.938811C39.5814 0.536455 38.5368 0.330637 37.4822 0.333277H37.4769ZM40.1538 8.33328C40.1538 9.04528 39.8754 9.71461 39.3213 10.2666L32.123 17.7999L24.8766 10.2186C24.3707 9.71461 24.0923 9.04528 24.0923 8.33328C24.0923 7.62128 24.3707 6.95194 24.8793 6.44528C25.3634 5.95476 26.0225 5.67485 26.713 5.66661C26.7799 5.66928 28.0568 5.75194 29.5693 6.95994C29.7861 7.13328 30.0056 7.33061 30.2305 7.55194L32.123 9.43728L34.0156 7.55194C34.2405 7.33061 34.46 7.13328 34.6768 6.95994C36.0929 5.82661 37.2895 5.68528 37.4929 5.66928C37.8419 5.66921 38.1873 5.73799 38.5094 5.87164C38.8315 6.00528 39.1238 6.20115 39.3695 6.44794C39.8754 6.95194 40.1538 7.62128 40.1538 8.33328Z" fill="white"/>
</svg>
