<svg width="60" height="54" viewBox="0 0 60 54" fill="none" xmlns="http://www.w3.org/2000/svg">
<path d="M30.7812 34.8125H29.2188V37.9375H30.7812V34.8125Z" fill="white"/>
<path d="M30.7812 16.0625H29.2188V19.1875H30.7812V16.0625Z" fill="white"/>
<path d="M22.1875 26.2188H19.0625V27.7812H22.1875V26.2188Z" fill="white"/>
<path d="M40.9375 26.2188H37.8125V27.7812H40.9375V26.2188Z" fill="white"/>
<path d="M38.2833 34.182L36.0725 31.9712L34.9677 33.076L37.1785 35.2868L38.2833 34.182Z" fill="white"/>
<path d="M25.0254 20.9242L22.8146 18.7134L21.7097 19.8182L23.9205 22.029L25.0254 20.9242Z" fill="white"/>
<path d="M25.0287 33.0755L23.9238 31.9707L21.713 34.1815L22.8179 35.2863L25.0287 33.0755Z" fill="white"/>
<path d="M38.2858 19.8182L37.1809 18.7134L34.9701 20.9242L36.075 22.029L38.2858 19.8182Z" fill="white"/>
<path d="M39.9493 53.5781C37.1211 53.5781 33.9242 52.496 30.5805 50.3636C25.3582 47.0335 20.3508 41.5077 16.4809 34.8046C12.611 28.1015 10.3293 21.0027 10.0563 14.8148C9.77542 8.44446 11.6555 3.76165 15.3504 1.62806C19.0453 -0.505537 24.0414 0.208136 29.4176 3.63626C34.6399 6.96634 39.6473 12.4921 43.5172 19.1952C47.3871 25.8984 49.6688 32.9972 49.9418 39.1851C50.2227 45.5554 48.3422 50.2382 44.6473 52.3714C43.2508 53.1781 41.6676 53.5781 39.9493 53.5781V53.5781ZM20.0578 1.98431C18.6082 1.98431 17.2868 2.31439 16.1317 2.98118C12.966 4.80853 11.3629 8.98665 11.6168 14.7456C11.8789 20.687 14.0868 27.5335 17.834 34.0234C21.5809 40.5132 26.4055 45.848 31.42 49.046C36.2805 52.1456 40.7 52.8456 43.8657 51.0187C47.0313 49.1913 48.6344 45.0132 48.3805 39.2542C48.1184 33.3128 45.9106 26.4663 42.1633 19.9765C38.4164 13.4866 33.5918 8.15188 28.5774 4.95384C25.4903 2.98509 22.5809 1.98431 20.0578 1.98431V1.98431Z" fill="white"/>
<path d="M20.0509 53.5782C18.3321 53.5782 16.7497 53.1786 15.3528 52.372C11.6579 50.2387 9.77782 45.5556 10.0583 39.1856C10.3313 32.9977 12.613 25.8985 16.4829 19.1958C20.3528 12.4931 25.3602 6.96728 30.5825 3.63682C35.9583 0.209083 40.9548 -0.505371 44.6497 1.62861C48.3446 3.76181 50.2247 8.44502 49.9442 14.8149C49.6712 21.0028 47.3895 28.102 43.5196 34.8048C39.6497 41.5075 34.6423 47.0333 29.42 50.3638C26.0763 52.4958 22.8794 53.5782 20.0509 53.5782V53.5782ZM39.9423 1.98447C37.4192 1.98447 34.5102 2.98525 31.4224 4.954C26.4079 8.15205 21.5833 13.4868 17.8364 19.9767C14.0891 26.4665 11.8813 33.3126 11.6192 39.2544C11.3653 45.0134 12.9684 49.1915 16.1341 51.0188C19.2989 52.8458 23.7188 52.1458 28.5798 49.0462C33.5942 45.8481 38.4188 40.5134 42.1657 34.0235C45.913 27.5337 48.1208 20.6876 48.3829 14.7458C48.6368 8.98681 47.0337 4.80869 43.8681 2.98135C42.7138 2.31494 41.3915 1.98447 39.9423 1.98447V1.98447Z" fill="white"/>
<path d="M30 42.6094C22.2602 42.6094 14.9711 41.0356 9.47617 38.1781C3.81875 35.2363 0.703125 31.2664 0.703125 27C0.703125 22.7336 3.81875 18.7637 9.47617 15.8219C14.9711 12.9645 22.2602 11.3906 30 11.3906C37.7398 11.3906 45.0289 12.9645 50.5238 15.8219C56.1813 18.7637 59.2969 22.7336 59.2969 27C59.2969 31.2664 56.1813 35.2363 50.5238 38.1781C45.0289 41.0356 37.7398 42.6094 30 42.6094V42.6094ZM30 12.9531C14.7074 12.9531 2.26562 19.2543 2.26562 27C2.26562 34.7457 14.7074 41.0469 30 41.0469C45.2926 41.0469 57.7344 34.7457 57.7344 27C57.7344 19.2543 45.2926 12.9531 30 12.9531V12.9531Z" fill="white" stroke="white"/>
<path d="M30 32.8594C33.236 32.8594 35.8594 30.236 35.8594 27C35.8594 23.764 33.236 21.1406 30 21.1406C26.764 21.1406 24.1406 23.764 24.1406 27C24.1406 30.236 26.764 32.8594 30 32.8594Z" fill="#D92B04"/>
<path d="M30 33.6406C26.3383 33.6406 23.3594 30.6617 23.3594 27C23.3594 23.3383 26.3383 20.3594 30 20.3594C33.6617 20.3594 36.6406 23.3383 36.6406 27C36.6406 30.6617 33.6617 33.6406 30 33.6406ZM30 21.9219C27.2 21.9219 24.9219 24.2 24.9219 27C24.9219 29.8 27.2 32.0781 30 32.0781C32.8 32.0781 35.0781 29.8 35.0781 27C35.0781 24.2 32.8 21.9219 30 21.9219Z" fill="white"/>
</svg>
