<svg width="128" height="33" viewBox="0 0 128 33" fill="none" xmlns="http://www.w3.org/2000/svg">
<path d="M7.588 2.69L7.434 2.732L6.048 2.55H4.592V9.9L4.662 12H3.374L3.444 9.9V2.55H1.988L0.602 2.732L0.448 2.69L0.63 1.5H7.406L7.588 2.69ZM15.1791 9.9V6.162C15.1791 5.59267 15.0624 5.17733 14.8291 4.916C14.6051 4.65467 14.2411 4.524 13.7371 4.524C13.3451 4.524 12.9157 4.64067 12.4491 4.874C11.9917 5.10733 11.6651 5.378 11.4691 5.686V9.9L11.5391 12H10.2791L10.3491 9.9V2.83L10.2791 0.8H11.5391L11.4691 2.83V4.762C11.7211 4.38867 12.0944 4.08533 12.5891 3.852C13.0931 3.61867 13.6157 3.502 14.1571 3.502C14.8291 3.502 15.3517 3.712 15.7251 4.132C16.1077 4.54267 16.2991 5.12133 16.2991 5.868V9.9L16.3691 12H15.1091L15.1791 9.9ZM22.926 12.168C21.6847 12.168 20.8073 11.804 20.294 11.076C19.7807 10.348 19.524 9.25133 19.524 7.786C19.524 4.846 20.658 3.376 22.926 3.376C24.0087 3.376 24.8113 3.66533 25.334 4.244C25.866 4.82267 26.1787 5.77467 26.272 7.1L25.922 8.388H20.728C20.7467 9.34 20.9287 10.0353 21.274 10.474C21.6193 10.9127 22.2353 11.132 23.122 11.132C24.1673 11.132 25.0587 10.8753 25.796 10.362L26.034 10.474L25.782 11.468C25.446 11.7107 25.0587 11.888 24.62 12C24.1907 12.112 23.626 12.168 22.926 12.168ZM25.082 7.366C25.0727 6.64733 24.998 6.08267 24.858 5.672C24.7273 5.252 24.5127 4.94867 24.214 4.762C23.9153 4.566 23.5047 4.468 22.982 4.468C22.422 4.468 21.9787 4.566 21.652 4.762C21.3253 4.94867 21.0873 5.252 20.938 5.672C20.798 6.08267 20.7233 6.64733 20.714 7.366H25.082ZM37.8295 12.224C36.7562 12.224 35.9022 12.0373 35.2675 11.664C34.6329 11.2907 34.1709 10.7073 33.8815 9.914C33.5922 9.11133 33.4475 8.04267 33.4475 6.708C33.4475 4.92533 33.8022 3.57667 34.5115 2.662C35.2209 1.738 36.3269 1.276 37.8295 1.276C38.3989 1.276 38.8702 1.332 39.2435 1.444C39.6262 1.556 39.9669 1.73333 40.2655 1.976L40.0695 2.97L39.7895 3.096C39.3322 2.63867 38.6789 2.41 37.8295 2.41C36.7749 2.41 35.9909 2.75533 35.4775 3.446C34.9642 4.12733 34.7075 5.21467 34.7075 6.708C34.7075 7.80933 34.8055 8.67733 35.0015 9.312C35.2069 9.93733 35.5335 10.39 35.9815 10.67C36.4295 10.95 37.0455 11.09 37.8295 11.09C38.3615 11.09 38.7955 11.0387 39.1315 10.936C39.4675 10.824 39.7942 10.6327 40.1115 10.362L40.3495 10.474L40.0975 11.468C39.3975 11.972 38.6415 12.224 37.8295 12.224ZM46.4568 12.224C45.2808 12.224 44.4128 11.86 43.8528 11.132C43.2928 10.404 43.0128 9.28867 43.0128 7.786C43.0128 6.28333 43.2928 5.17267 43.8528 4.454C44.4128 3.73533 45.2808 3.376 46.4568 3.376C47.6328 3.376 48.5008 3.73533 49.0608 4.454C49.6208 5.17267 49.9008 6.28333 49.9008 7.786C49.9008 9.28867 49.6208 10.404 49.0608 11.132C48.5008 11.86 47.6328 12.224 46.4568 12.224ZM46.4568 11.132C47.0355 11.132 47.4881 11.0293 47.8148 10.824C48.1415 10.6093 48.3748 10.264 48.5148 9.788C48.6548 9.312 48.7248 8.64933 48.7248 7.8C48.7248 6.95067 48.6548 6.288 48.5148 5.812C48.3748 5.336 48.1415 4.99533 47.8148 4.79C47.4881 4.57533 47.0355 4.468 46.4568 4.468C45.8781 4.468 45.4255 4.57533 45.0988 4.79C44.7721 4.99533 44.5388 5.336 44.3988 5.812C44.2588 6.288 44.1888 6.95067 44.1888 7.8C44.1888 8.64933 44.2588 9.312 44.3988 9.788C44.5388 10.264 44.7721 10.6093 45.0988 10.824C45.4255 11.0293 45.8781 11.132 46.4568 11.132ZM62.1485 9.9V6.162C62.1485 5.59267 62.0319 5.17733 61.7985 4.916C61.5745 4.65467 61.2105 4.524 60.7065 4.524C60.3985 4.524 60.0579 4.60333 59.6845 4.762C59.3205 4.91133 59.0079 5.098 58.7465 5.322C58.7745 5.49933 58.7885 5.68133 58.7885 5.868V9.9L58.8585 12H57.5985L57.6685 9.9V6.162C57.6685 5.59267 57.5519 5.17733 57.3185 4.916C57.0945 4.65467 56.7305 4.524 56.2265 4.524C55.9279 4.524 55.5965 4.59867 55.2325 4.748C54.8779 4.888 54.5699 5.07 54.3085 5.294V9.9L54.3785 12H53.1185L53.1885 9.9V5.63L53.1185 3.6H54.0285L54.2245 4.44C54.5139 4.15067 54.8779 3.922 55.3165 3.754C55.7552 3.586 56.1985 3.502 56.6465 3.502C57.0945 3.502 57.4819 3.6 57.8085 3.796C58.1352 3.98267 58.3825 4.258 58.5505 4.622C58.8119 4.286 59.1805 4.01533 59.6565 3.81C60.1325 3.60467 60.6225 3.502 61.1265 3.502C61.7985 3.502 62.3212 3.712 62.6945 4.132C63.0772 4.54267 63.2685 5.12133 63.2685 5.868V9.9L63.3385 12H62.0785L62.1485 9.9ZM75.8023 9.9V6.162C75.8023 5.59267 75.6857 5.17733 75.4523 4.916C75.2283 4.65467 74.8643 4.524 74.3603 4.524C74.0523 4.524 73.7117 4.60333 73.3383 4.762C72.9743 4.91133 72.6617 5.098 72.4003 5.322C72.4283 5.49933 72.4423 5.68133 72.4423 5.868V9.9L72.5123 12H71.2523L71.3223 9.9V6.162C71.3223 5.59267 71.2057 5.17733 70.9723 4.916C70.7483 4.65467 70.3843 4.524 69.8803 4.524C69.5817 4.524 69.2503 4.59867 68.8863 4.748C68.5317 4.888 68.2237 5.07 67.9623 5.294V9.9L68.0323 12H66.7723L66.8423 9.9V5.63L66.7723 3.6H67.6823L67.8783 4.44C68.1677 4.15067 68.5317 3.922 68.9703 3.754C69.409 3.586 69.8523 3.502 70.3003 3.502C70.7483 3.502 71.1357 3.6 71.4623 3.796C71.789 3.98267 72.0363 4.258 72.2043 4.622C72.4657 4.286 72.8343 4.01533 73.3103 3.81C73.7863 3.60467 74.2763 3.502 74.7803 3.502C75.4523 3.502 75.975 3.712 76.3483 4.132C76.731 4.54267 76.9223 5.12133 76.9223 5.868V9.9L76.9923 12H75.7323L75.8023 9.9ZM86.3762 9.97L86.4462 12H85.3122L85.2422 10.852C84.9808 11.2347 84.5982 11.552 84.0942 11.804C83.5995 12.0467 83.0908 12.168 82.5682 12.168C81.9055 12.168 81.3828 11.958 81.0002 11.538C80.6175 11.1087 80.4262 10.5067 80.4262 9.732V5.7L80.3562 3.6H81.6162L81.5462 5.7V9.438C81.5462 10.0353 81.6628 10.4693 81.8962 10.74C82.1295 11.0107 82.4935 11.146 82.9882 11.146C83.3615 11.146 83.7815 11.02 84.2482 10.768C84.7148 10.516 85.0508 10.2313 85.2562 9.914V5.7L85.1862 3.6H86.4462L86.3762 5.7V9.97ZM94.8511 9.9V6.162C94.8511 5.59267 94.7344 5.17733 94.5011 4.916C94.2771 4.65467 93.9131 4.524 93.4091 4.524C93.0171 4.524 92.5878 4.64067 92.1211 4.874C91.6638 5.10733 91.3371 5.378 91.1411 5.686V9.9L91.2111 12H89.9511L90.0211 9.9V5.63L89.9511 3.6H90.8611L91.1411 4.762C91.3931 4.38867 91.7664 4.08533 92.2611 3.852C92.7651 3.61867 93.2878 3.502 93.8291 3.502C94.5011 3.502 95.0238 3.712 95.3971 4.132C95.7798 4.54267 95.9711 5.12133 95.9711 5.868V9.9L96.0411 12H94.7811L94.8511 9.9ZM100.106 2.074C99.882 2.074 99.6907 2.01333 99.532 1.892C99.3827 1.76133 99.308 1.60267 99.308 1.416C99.308 1.22933 99.3827 1.07067 99.532 0.94C99.6907 0.809333 99.882 0.744 100.106 0.744C100.33 0.744 100.517 0.809333 100.666 0.94C100.825 1.07067 100.904 1.22933 100.904 1.416C100.904 1.60267 100.825 1.76133 100.666 1.892C100.517 2.01333 100.33 2.074 100.106 2.074ZM99.546 9.9V5.63L99.476 3.6H100.736L100.666 5.63V9.9L100.736 12H99.476L99.546 9.9ZM103.977 3.936L104.873 3.6L105.293 1.85H105.993V3.6H108.485V4.622H105.993V9.704C105.993 10.1987 106.077 10.5533 106.245 10.768C106.413 10.9827 106.679 11.09 107.043 11.09C107.361 11.09 107.673 11.02 107.981 10.88C108.299 10.74 108.527 10.5627 108.667 10.348L108.821 10.418L108.583 11.356C108.387 11.608 108.131 11.8087 107.813 11.958C107.496 12.098 107.179 12.168 106.861 12.168C106.189 12.168 105.69 11.9627 105.363 11.552C105.037 11.1413 104.873 10.4833 104.873 9.578V4.622H103.977V3.936ZM117.854 3.6L117.098 5.63L114.928 12C114.396 13.344 113.64 14.352 112.66 15.024L111.736 14.184L111.792 13.946C112.119 13.862 112.488 13.624 112.898 13.232C113.318 12.84 113.631 12.4293 113.836 12H113.598L111.512 5.63L110.742 3.6H112.212L112.73 5.63L114.284 10.824L115.88 5.63L116.398 3.6H117.854ZM4.536 32.154C3.81733 32.154 3.18733 32.0607 2.646 31.874C2.114 31.6873 1.59133 31.3607 1.078 30.894L0.91 29.746L1.106 29.69C2.15133 30.5767 3.23867 31.02 4.368 31.02C5.11467 31.02 5.69333 30.8707 6.104 30.572C6.51467 30.2733 6.72 29.872 6.72 29.368C6.72 29.0133 6.65 28.7287 6.51 28.514C6.37 28.29 6.10867 28.094 5.726 27.926C5.35267 27.758 4.774 27.576 3.99 27.38C2.926 27.1187 2.16067 26.75 1.694 26.274C1.22733 25.798 0.994 25.1633 0.994 24.37C0.994 23.4553 1.28333 22.7273 1.862 22.186C2.44067 21.6353 3.27133 21.36 4.354 21.36C4.98867 21.36 5.59067 21.458 6.16 21.654C6.73867 21.8407 7.21 22.102 7.574 22.438L7.406 23.558L7.196 23.614C6.87867 23.2873 6.47267 23.0213 5.978 22.816C5.49267 22.6013 5.012 22.494 4.536 22.494C3.76133 22.494 3.178 22.6387 2.786 22.928C2.40333 23.2173 2.212 23.6373 2.212 24.188C2.212 24.5707 2.28667 24.8833 2.436 25.126C2.58533 25.3687 2.842 25.5833 3.206 25.77C3.57 25.9473 4.09733 26.12 4.788 26.288C5.59067 26.4933 6.216 26.722 6.664 26.974C7.12133 27.226 7.448 27.5293 7.644 27.884C7.84 28.2293 7.938 28.6633 7.938 29.186C7.938 30.1193 7.63467 30.8473 7.028 31.37C6.43067 31.8927 5.6 32.154 4.536 32.154ZM14.1097 32.224C13.0084 32.224 12.1824 31.86 11.6317 31.132C11.081 30.404 10.8057 29.3167 10.8057 27.87C10.8057 26.442 11.0904 25.3453 11.6597 24.58C12.2384 23.8147 13.0784 23.432 14.1797 23.432C14.7397 23.432 15.1924 23.4833 15.5377 23.586C15.8924 23.6793 16.2377 23.8473 16.5737 24.09L16.3777 25.084L16.1677 25.182C15.925 24.9487 15.659 24.7807 15.3697 24.678C15.0804 24.5753 14.7304 24.524 14.3197 24.524C13.5077 24.524 12.915 24.7947 12.5417 25.336C12.1684 25.868 11.9817 26.7127 11.9817 27.87C11.9817 29.0087 12.1684 29.8393 12.5417 30.362C12.915 30.8753 13.5124 31.132 14.3337 31.132C14.8004 31.132 15.1784 31.0807 15.4677 30.978C15.7664 30.866 16.1024 30.6607 16.4757 30.362L16.7137 30.474L16.4617 31.468C16.0884 31.748 15.729 31.944 15.3837 32.056C15.0477 32.168 14.623 32.224 14.1097 32.224ZM20.4203 22.074C20.1963 22.074 20.005 22.0133 19.8463 21.892C19.697 21.7613 19.6223 21.6027 19.6223 21.416C19.6223 21.2293 19.697 21.0707 19.8463 20.94C20.005 20.8093 20.1963 20.744 20.4203 20.744C20.6443 20.744 20.831 20.8093 20.9803 20.94C21.139 21.0707 21.2183 21.2293 21.2183 21.416C21.2183 21.6027 21.139 21.7613 20.9803 21.892C20.831 22.0133 20.6443 22.074 20.4203 22.074ZM19.8603 29.9V25.63L19.7903 23.6H21.0503L20.9803 25.63V29.9L21.0503 32H19.7903L19.8603 29.9ZM27.6658 32.168C26.4244 32.168 25.5471 31.804 25.0338 31.076C24.5204 30.348 24.2638 29.2513 24.2638 27.786C24.2638 24.846 25.3978 23.376 27.6658 23.376C28.7484 23.376 29.5511 23.6653 30.0738 24.244C30.6058 24.8227 30.9184 25.7747 31.0118 27.1L30.6618 28.388H25.4678C25.4864 29.34 25.6684 30.0353 26.0138 30.474C26.3591 30.9127 26.9751 31.132 27.8618 31.132C28.9071 31.132 29.7984 30.8753 30.5358 30.362L30.7738 30.474L30.5218 31.468C30.1858 31.7107 29.7984 31.888 29.3598 32C28.9304 32.112 28.3658 32.168 27.6658 32.168ZM29.8218 27.366C29.8124 26.6473 29.7378 26.0827 29.5978 25.672C29.4671 25.252 29.2524 24.9487 28.9538 24.762C28.6551 24.566 28.2444 24.468 27.7218 24.468C27.1618 24.468 26.7184 24.566 26.3918 24.762C26.0651 24.9487 25.8271 25.252 25.6778 25.672C25.5378 26.0827 25.4631 26.6473 25.4538 27.366H29.8218ZM38.996 29.9V26.162C38.996 25.5927 38.8793 25.1773 38.646 24.916C38.422 24.6547 38.058 24.524 37.554 24.524C37.162 24.524 36.7327 24.6407 36.266 24.874C35.8087 25.1073 35.482 25.378 35.286 25.686V29.9L35.356 32H34.096L34.166 29.9V25.63L34.096 23.6H35.006L35.286 24.762C35.538 24.3887 35.9113 24.0853 36.406 23.852C36.91 23.6187 37.4327 23.502 37.974 23.502C38.646 23.502 39.1687 23.712 39.542 24.132C39.9247 24.5427 40.116 25.1213 40.116 25.868V29.9L40.186 32H38.926L38.996 29.9ZM46.6449 32.224C45.5436 32.224 44.7176 31.86 44.1669 31.132C43.6163 30.404 43.3409 29.3167 43.3409 27.87C43.3409 26.442 43.6256 25.3453 44.1949 24.58C44.7736 23.8147 45.6136 23.432 46.7149 23.432C47.2749 23.432 47.7276 23.4833 48.0729 23.586C48.4276 23.6793 48.7729 23.8473 49.1089 24.09L48.9129 25.084L48.7029 25.182C48.4603 24.9487 48.1943 24.7807 47.9049 24.678C47.6156 24.5753 47.2656 24.524 46.8549 24.524C46.0429 24.524 45.4503 24.7947 45.0769 25.336C44.7036 25.868 44.5169 26.7127 44.5169 27.87C44.5169 29.0087 44.7036 29.8393 45.0769 30.362C45.4503 30.8753 46.0476 31.132 46.8689 31.132C47.3356 31.132 47.7136 31.0807 48.0029 30.978C48.3016 30.866 48.6376 30.6607 49.0109 30.362L49.2489 30.474L48.9969 31.468C48.6236 31.748 48.2643 31.944 47.9189 32.056C47.5829 32.168 47.1583 32.224 46.6449 32.224ZM55.4475 32.168C54.2062 32.168 53.3289 31.804 52.8155 31.076C52.3022 30.348 52.0455 29.2513 52.0455 27.786C52.0455 24.846 53.1795 23.376 55.4475 23.376C56.5302 23.376 57.3329 23.6653 57.8555 24.244C58.3875 24.8227 58.7002 25.7747 58.7935 27.1L58.4435 28.388H53.2495C53.2682 29.34 53.4502 30.0353 53.7955 30.474C54.1409 30.9127 54.7569 31.132 55.6435 31.132C56.6889 31.132 57.5802 30.8753 58.3175 30.362L58.5555 30.474L58.3035 31.468C57.9675 31.7107 57.5802 31.888 57.1415 32C56.7122 32.112 56.1475 32.168 55.4475 32.168ZM57.6035 27.366C57.5942 26.6473 57.5195 26.0827 57.3795 25.672C57.2489 25.252 57.0342 24.9487 56.7355 24.762C56.4369 24.566 56.0262 24.468 55.5035 24.468C54.9435 24.468 54.5002 24.566 54.1735 24.762C53.8469 24.9487 53.6089 25.252 53.4595 25.672C53.3195 26.0827 53.2449 26.6473 53.2355 27.366H57.6035ZM75.8531 29.9L75.9231 32H74.6351L74.7051 29.9V22.018L72.0031 32H70.0431L67.4111 22.032V29.9L67.4811 32H66.2911L66.3611 29.9V23.53L66.2911 21.5H68.5731L71.0651 31.328L73.6831 21.5H75.9231L75.8531 23.53V29.9ZM85.4421 29.97L85.5121 32H84.3781L84.3081 30.852C84.0468 31.2347 83.6641 31.552 83.1601 31.804C82.6654 32.0467 82.1568 32.168 81.6341 32.168C80.9714 32.168 80.4488 31.958 80.0661 31.538C79.6834 31.1087 79.4921 30.5067 79.4921 29.732V25.7L79.4221 23.6H80.6821L80.6121 25.7V29.438C80.6121 30.0353 80.7288 30.4693 80.9621 30.74C81.1954 31.0107 81.5594 31.146 82.0541 31.146C82.4274 31.146 82.8474 31.02 83.3141 30.768C83.7808 30.516 84.1168 30.2313 84.3221 29.914V25.7L84.2521 23.6H85.5121L85.4421 25.7V29.97ZM91.719 32.14C91.131 32.14 90.613 32.056 90.165 31.888C89.717 31.72 89.283 31.44 88.863 31.048L88.709 29.97L88.905 29.914C89.409 30.3153 89.8897 30.6047 90.347 30.782C90.8044 30.9593 91.2664 31.048 91.733 31.048C92.321 31.048 92.7597 30.9593 93.049 30.782C93.3477 30.6047 93.497 30.3527 93.497 30.026C93.497 29.774 93.4364 29.5687 93.315 29.41C93.203 29.242 92.9837 29.074 92.657 28.906C92.3304 28.7287 91.831 28.514 91.159 28.262C90.5337 28.0287 90.053 27.8 89.717 27.576C89.3904 27.352 89.1617 27.1093 89.031 26.848C88.9004 26.5773 88.835 26.2413 88.835 25.84C88.835 25.0747 89.0824 24.482 89.577 24.062C90.081 23.6327 90.7997 23.418 91.733 23.418C92.293 23.418 92.7877 23.4833 93.217 23.614C93.6557 23.7447 94.057 23.95 94.421 24.23L94.225 25.322L94.015 25.378C93.7817 25.126 93.4504 24.9207 93.021 24.762C92.601 24.594 92.167 24.51 91.719 24.51C91.159 24.51 90.7297 24.608 90.431 24.804C90.1417 25 89.997 25.2847 89.997 25.658C89.997 25.9193 90.0577 26.1387 90.179 26.316C90.3004 26.484 90.5197 26.652 90.837 26.82C91.1544 26.9787 91.6397 27.17 92.293 27.394C92.8997 27.5993 93.371 27.814 93.707 28.038C94.0524 28.262 94.295 28.5187 94.435 28.808C94.5844 29.0973 94.659 29.452 94.659 29.872C94.659 30.6 94.4117 31.16 93.917 31.552C93.4317 31.944 92.699 32.14 91.719 32.14ZM100.967 32.168C99.7254 32.168 98.848 31.804 98.3347 31.076C97.8214 30.348 97.5647 29.2513 97.5647 27.786C97.5647 24.846 98.6987 23.376 100.967 23.376C102.049 23.376 102.852 23.6653 103.375 24.244C103.907 24.8227 104.219 25.7747 104.313 27.1L103.963 28.388H98.7687C98.7874 29.34 98.9694 30.0353 99.3147 30.474C99.66 30.9127 100.276 31.132 101.163 31.132C102.208 31.132 103.099 30.8753 103.837 30.362L104.075 30.474L103.823 31.468C103.487 31.7107 103.099 31.888 102.661 32C102.231 32.112 101.667 32.168 100.967 32.168ZM103.123 27.366C103.113 26.6473 103.039 26.0827 102.899 25.672C102.768 25.252 102.553 24.9487 102.255 24.762C101.956 24.566 101.545 24.468 101.023 24.468C100.463 24.468 100.019 24.566 99.6927 24.762C99.366 24.9487 99.128 25.252 98.9787 25.672C98.8387 26.0827 98.764 26.6473 98.7547 27.366H103.123ZM113.347 29.97L113.417 32H112.283L112.213 30.852C111.952 31.2347 111.569 31.552 111.065 31.804C110.57 32.0467 110.062 32.168 109.539 32.168C108.876 32.168 108.354 31.958 107.971 31.538C107.588 31.1087 107.397 30.5067 107.397 29.732V25.7L107.327 23.6H108.587L108.517 25.7V29.438C108.517 30.0353 108.634 30.4693 108.867 30.74C109.1 31.0107 109.464 31.146 109.959 31.146C110.332 31.146 110.752 31.02 111.219 30.768C111.686 30.516 112.022 30.2313 112.227 29.914V25.7L112.157 23.6H113.417L113.347 25.7V29.97ZM125.952 29.9V26.162C125.952 25.5927 125.835 25.1773 125.602 24.916C125.378 24.6547 125.014 24.524 124.51 24.524C124.202 24.524 123.861 24.6033 123.488 24.762C123.124 24.9113 122.811 25.098 122.55 25.322C122.578 25.4993 122.592 25.6813 122.592 25.868V29.9L122.662 32H121.402L121.472 29.9V26.162C121.472 25.5927 121.355 25.1773 121.122 24.916C120.898 24.6547 120.534 24.524 120.03 24.524C119.731 24.524 119.4 24.5987 119.036 24.748C118.681 24.888 118.373 25.07 118.112 25.294V29.9L118.182 32H116.922L116.992 29.9V25.63L116.922 23.6H117.832L118.028 24.44C118.317 24.1507 118.681 23.922 119.12 23.754C119.559 23.586 120.002 23.502 120.45 23.502C120.898 23.502 121.285 23.6 121.612 23.796C121.939 23.9827 122.186 24.258 122.354 24.622C122.615 24.286 122.984 24.0153 123.46 23.81C123.936 23.6047 124.426 23.502 124.93 23.502C125.602 23.502 126.125 23.712 126.498 24.132C126.881 24.5427 127.072 25.1213 127.072 25.868V29.9L127.142 32H125.882L125.952 29.9Z" fill="white"/>
</svg>
