<svg width="146" height="46" viewBox="0 0 146 46" fill="none" xmlns="http://www.w3.org/2000/svg">
<path d="M8.672 2.36L8.496 2.408L6.912 2.2H5.248V10.6L5.328 13H3.856L3.936 10.6V2.2H2.272L0.688 2.408L0.512 2.36L0.72 0.999999H8.464L8.672 2.36ZM17.3475 10.6V6.328C17.3475 5.67733 17.2142 5.20267 16.9475 4.904C16.6915 4.60533 16.2755 4.456 15.6995 4.456C15.2515 4.456 14.7608 4.58933 14.2275 4.856C13.7048 5.12267 13.3315 5.432 13.1075 5.784V10.6L13.1875 13H11.7475L11.8275 10.6V2.52L11.7475 0.2H13.1875L13.1075 2.52V4.728C13.3955 4.30133 13.8222 3.95467 14.3875 3.688C14.9635 3.42133 15.5608 3.288 16.1795 3.288C16.9475 3.288 17.5448 3.528 17.9715 4.008C18.4088 4.47733 18.6275 5.13867 18.6275 5.992V10.6L18.7075 13H17.2675L17.3475 10.6ZM26.2011 13.192C24.7825 13.192 23.7798 12.776 23.1931 11.944C22.6065 11.112 22.3131 9.85867 22.3131 8.184C22.3131 4.824 23.6091 3.144 26.2011 3.144C27.4385 3.144 28.3558 3.47467 28.9531 4.136C29.5611 4.79733 29.9185 5.88533 30.0251 7.4L29.6251 8.872H23.6891C23.7105 9.96 23.9185 10.7547 24.3131 11.256C24.7078 11.7573 25.4118 12.008 26.4251 12.008C27.6198 12.008 28.6385 11.7147 29.4811 11.128L29.7531 11.256L29.4651 12.392C29.0811 12.6693 28.6385 12.872 28.1371 13C27.6465 13.128 27.0011 13.192 26.2011 13.192ZM28.6651 7.704C28.6545 6.88267 28.5691 6.23733 28.4091 5.768C28.2598 5.288 28.0145 4.94133 27.6731 4.728C27.3318 4.504 26.8625 4.392 26.2651 4.392C25.6251 4.392 25.1185 4.504 24.7451 4.728C24.3718 4.94133 24.0998 5.288 23.9291 5.768C23.7691 6.23733 23.6838 6.88267 23.6731 7.704H28.6651ZM43.2337 13.256C42.0071 13.256 41.0311 13.0427 40.3057 12.616C39.5804 12.1893 39.0524 11.5227 38.7217 10.616C38.3911 9.69867 38.2257 8.47733 38.2257 6.952C38.2257 4.91467 38.6311 3.37333 39.4417 2.328C40.2524 1.272 41.5164 0.743999 43.2337 0.743999C43.8844 0.743999 44.4231 0.808 44.8498 0.936C45.2871 1.064 45.6764 1.26667 46.0177 1.544L45.7937 2.68L45.4738 2.824C44.9511 2.30133 44.2044 2.04 43.2337 2.04C42.0284 2.04 41.1324 2.43467 40.5457 3.224C39.9591 4.00267 39.6657 5.24533 39.6657 6.952C39.6657 8.21067 39.7777 9.20267 40.0017 9.928C40.2364 10.6427 40.6097 11.16 41.1217 11.48C41.6337 11.8 42.3377 11.96 43.2337 11.96C43.8417 11.96 44.3377 11.9013 44.7217 11.784C45.1057 11.656 45.4791 11.4373 45.8418 11.128L46.1137 11.256L45.8258 12.392C45.0258 12.968 44.1617 13.256 43.2337 13.256ZM53.0935 13.256C51.7495 13.256 50.7575 12.84 50.1175 12.008C49.4775 11.176 49.1575 9.90133 49.1575 8.184C49.1575 6.46667 49.4775 5.19733 50.1175 4.376C50.7575 3.55467 51.7495 3.144 53.0935 3.144C54.4375 3.144 55.4295 3.55467 56.0695 4.376C56.7095 5.19733 57.0295 6.46667 57.0295 8.184C57.0295 9.90133 56.7095 11.176 56.0695 12.008C55.4295 12.84 54.4375 13.256 53.0935 13.256ZM53.0935 12.008C53.7548 12.008 54.2722 11.8907 54.6455 11.656C55.0188 11.4107 55.2855 11.016 55.4455 10.472C55.6055 9.928 55.6855 9.17067 55.6855 8.2C55.6855 7.22933 55.6055 6.472 55.4455 5.928C55.2855 5.384 55.0188 4.99467 54.6455 4.76C54.2722 4.51467 53.7548 4.392 53.0935 4.392C52.4322 4.392 51.9148 4.51467 51.5415 4.76C51.1682 4.99467 50.9015 5.384 50.7415 5.928C50.5815 6.472 50.5015 7.22933 50.5015 8.2C50.5015 9.17067 50.5815 9.928 50.7415 10.472C50.9015 11.016 51.1682 11.4107 51.5415 11.656C51.9148 11.8907 52.4322 12.008 53.0935 12.008ZM71.0269 10.6V6.328C71.0269 5.67733 70.8935 5.20267 70.6269 4.904C70.3709 4.60533 69.9549 4.456 69.3789 4.456C69.0269 4.456 68.6375 4.54667 68.2109 4.728C67.7949 4.89867 67.4375 5.112 67.1389 5.368C67.1709 5.57067 67.1869 5.77867 67.1869 5.992V10.6L67.2669 13H65.8269L65.9069 10.6V6.328C65.9069 5.67733 65.7735 5.20267 65.5069 4.904C65.2509 4.60533 64.8349 4.456 64.2589 4.456C63.9175 4.456 63.5389 4.54133 63.1229 4.712C62.7175 4.872 62.3655 5.08 62.0669 5.336V10.6L62.1469 13H60.7069L60.7869 10.6V5.72L60.7069 3.4H61.7469L61.9709 4.36C62.3015 4.02933 62.7175 3.768 63.2189 3.576C63.7202 3.384 64.2269 3.288 64.7389 3.288C65.2509 3.288 65.6935 3.4 66.0669 3.624C66.4402 3.83733 66.7229 4.152 66.9149 4.568C67.2135 4.184 67.6349 3.87467 68.1789 3.64C68.7229 3.40533 69.2829 3.288 69.8589 3.288C70.6269 3.288 71.2242 3.528 71.6509 4.008C72.0882 4.47733 72.3069 5.13867 72.3069 5.992V10.6L72.3869 13H70.9469L71.0269 10.6ZM86.6312 10.6V6.328C86.6312 5.67733 86.4979 5.20267 86.2312 4.904C85.9752 4.60533 85.5592 4.456 84.9832 4.456C84.6312 4.456 84.2419 4.54667 83.8152 4.728C83.3992 4.89867 83.0419 5.112 82.7432 5.368C82.7752 5.57067 82.7912 5.77867 82.7912 5.992V10.6L82.8712 13H81.4312L81.5112 10.6V6.328C81.5112 5.67733 81.3779 5.20267 81.1112 4.904C80.8552 4.60533 80.4392 4.456 79.8632 4.456C79.5219 4.456 79.1432 4.54133 78.7272 4.712C78.3219 4.872 77.9699 5.08 77.6712 5.336V10.6L77.7512 13H76.3112L76.3912 10.6V5.72L76.3112 3.4H77.3512L77.5752 4.36C77.9059 4.02933 78.3219 3.768 78.8232 3.576C79.3246 3.384 79.8312 3.288 80.3432 3.288C80.8552 3.288 81.2979 3.4 81.6712 3.624C82.0446 3.83733 82.3272 4.152 82.5192 4.568C82.8179 4.184 83.2392 3.87467 83.7832 3.64C84.3272 3.40533 84.8872 3.288 85.4632 3.288C86.2312 3.288 86.8286 3.528 87.2552 4.008C87.6926 4.47733 87.9112 5.13867 87.9112 5.992V10.6L87.9912 13H86.5512L86.6312 10.6ZM98.7156 10.68L98.7956 13H97.4996L97.4196 11.688C97.121 12.1253 96.6836 12.488 96.1076 12.776C95.5423 13.0533 94.961 13.192 94.3636 13.192C93.6063 13.192 93.009 12.952 92.5716 12.472C92.1343 11.9813 91.9156 11.2933 91.9156 10.408V5.8L91.8356 3.4H93.2756L93.1956 5.8V10.072C93.1956 10.7547 93.329 11.2507 93.5956 11.56C93.8623 11.8693 94.2783 12.024 94.8436 12.024C95.2703 12.024 95.7503 11.88 96.2836 11.592C96.817 11.304 97.201 10.9787 97.4356 10.616V5.8L97.3556 3.4H98.7956L98.7156 5.8V10.68ZM108.401 10.6V6.328C108.401 5.67733 108.268 5.20267 108.001 4.904C107.745 4.60533 107.329 4.456 106.753 4.456C106.305 4.456 105.815 4.58933 105.281 4.856C104.759 5.12267 104.385 5.432 104.161 5.784V10.6L104.241 13H102.801L102.881 10.6V5.72L102.801 3.4H103.841L104.161 4.728C104.449 4.30133 104.876 3.95467 105.441 3.688C106.017 3.42133 106.615 3.288 107.233 3.288C108.001 3.288 108.599 3.528 109.025 4.008C109.463 4.47733 109.681 5.13867 109.681 5.992V10.6L109.761 13H108.321L108.401 10.6ZM114.407 1.656C114.151 1.656 113.932 1.58667 113.751 1.448C113.58 1.29867 113.495 1.11733 113.495 0.903999C113.495 0.690666 113.58 0.509333 113.751 0.36C113.932 0.210666 114.151 0.136 114.407 0.136C114.663 0.136 114.876 0.210666 115.047 0.36C115.228 0.509333 115.319 0.690666 115.319 0.903999C115.319 1.11733 115.228 1.29867 115.047 1.448C114.876 1.58667 114.663 1.656 114.407 1.656ZM113.767 10.6V5.72L113.687 3.4H115.127L115.047 5.72V10.6L115.127 13H113.687L113.767 10.6ZM118.831 3.784L119.855 3.4L120.335 1.4H121.135V3.4H123.983V4.568H121.135V10.376C121.135 10.9413 121.231 11.3467 121.423 11.592C121.615 11.8373 121.919 11.96 122.335 11.96C122.698 11.96 123.055 11.88 123.407 11.72C123.77 11.56 124.031 11.3573 124.191 11.112L124.367 11.192L124.095 12.264C123.871 12.552 123.578 12.7813 123.215 12.952C122.853 13.112 122.49 13.192 122.127 13.192C121.359 13.192 120.789 12.9573 120.415 12.488C120.042 12.0187 119.855 11.2667 119.855 10.232V4.568H118.831V3.784ZM134.691 3.4L133.827 5.72L131.347 13C130.739 14.536 129.875 15.688 128.755 16.456L127.699 15.496L127.763 15.224C128.136 15.128 128.557 14.856 129.027 14.408C129.507 13.96 129.864 13.4907 130.099 13H129.827L127.443 5.72L126.563 3.4H128.243L128.835 5.72L130.611 11.656L132.435 5.72L133.027 3.4H134.691ZM5.184 45.176C4.36267 45.176 3.64267 45.0693 3.024 44.856C2.416 44.6427 1.81867 44.2693 1.232 43.736L1.04 42.424L1.264 42.36C2.45867 43.3733 3.70133 43.88 4.992 43.88C5.84533 43.88 6.50667 43.7093 6.976 43.368C7.44533 43.0267 7.68 42.568 7.68 41.992C7.68 41.5867 7.6 41.2613 7.44 41.016C7.28 40.76 6.98133 40.536 6.544 40.344C6.11733 40.152 5.456 39.944 4.56 39.72C3.344 39.4213 2.46933 39 1.936 38.456C1.40267 37.912 1.136 37.1867 1.136 36.28C1.136 35.2347 1.46667 34.4027 2.128 33.784C2.78933 33.1547 3.73867 32.84 4.976 32.84C5.70133 32.84 6.38933 32.952 7.04 33.176C7.70133 33.3893 8.24 33.688 8.656 34.072L8.464 35.352L8.224 35.416C7.86133 35.0427 7.39733 34.7387 6.832 34.504C6.27733 34.2587 5.728 34.136 5.184 34.136C4.29867 34.136 3.632 34.3013 3.184 34.632C2.74667 34.9627 2.528 35.4427 2.528 36.072C2.528 36.5093 2.61333 36.8667 2.784 37.144C2.95467 37.4213 3.248 37.6667 3.664 37.88C4.08 38.0827 4.68267 38.28 5.472 38.472C6.38933 38.7067 7.104 38.968 7.616 39.256C8.13867 39.544 8.512 39.8907 8.736 40.296C8.96 40.6907 9.072 41.1867 9.072 41.784C9.072 42.8507 8.72533 43.6827 8.032 44.28C7.34933 44.8773 6.4 45.176 5.184 45.176ZM16.1254 45.256C14.8667 45.256 13.9227 44.84 13.2934 44.008C12.664 43.176 12.3494 41.9333 12.3494 40.28C12.3494 38.648 12.6747 37.3947 13.3254 36.52C13.9867 35.6453 14.9467 35.208 16.2054 35.208C16.8454 35.208 17.3627 35.2667 17.7574 35.384C18.1627 35.4907 18.5574 35.6827 18.9414 35.96L18.7174 37.096L18.4774 37.208C18.2 36.9413 17.896 36.7493 17.5654 36.632C17.2347 36.5147 16.8347 36.456 16.3654 36.456C15.4374 36.456 14.76 36.7653 14.3334 37.384C13.9067 37.992 13.6934 38.9573 13.6934 40.28C13.6934 41.5813 13.9067 42.5307 14.3334 43.128C14.76 43.7147 15.4427 44.008 16.3814 44.008C16.9147 44.008 17.3467 43.9493 17.6774 43.832C18.0187 43.704 18.4027 43.4693 18.8294 43.128L19.1014 43.256L18.8134 44.392C18.3867 44.712 17.976 44.936 17.5814 45.064C17.1974 45.192 16.712 45.256 16.1254 45.256ZM23.3375 33.656C23.0815 33.656 22.8628 33.5867 22.6815 33.448C22.5108 33.2987 22.4255 33.1173 22.4255 32.904C22.4255 32.6907 22.5108 32.5093 22.6815 32.36C22.8628 32.2107 23.0815 32.136 23.3375 32.136C23.5935 32.136 23.8068 32.2107 23.9775 32.36C24.1588 32.5093 24.2495 32.6907 24.2495 32.904C24.2495 33.1173 24.1588 33.2987 23.9775 33.448C23.8068 33.5867 23.5935 33.656 23.3375 33.656ZM22.6975 42.6V37.72L22.6175 35.4H24.0575L23.9775 37.72V42.6L24.0575 45H22.6175L22.6975 42.6ZM31.618 45.192C30.1993 45.192 29.1967 44.776 28.61 43.944C28.0233 43.112 27.73 41.8587 27.73 40.184C27.73 36.824 29.026 35.144 31.618 35.144C32.8553 35.144 33.7727 35.4747 34.37 36.136C34.978 36.7973 35.3353 37.8853 35.442 39.4L35.042 40.872H29.106C29.1273 41.96 29.3353 42.7547 29.73 43.256C30.1247 43.7573 30.8287 44.008 31.842 44.008C33.0367 44.008 34.0553 43.7147 34.898 43.128L35.17 43.256L34.882 44.392C34.498 44.6693 34.0553 44.872 33.554 45C33.0633 45.128 32.418 45.192 31.618 45.192ZM34.082 39.704C34.0713 38.8827 33.986 38.2373 33.826 37.768C33.6767 37.288 33.4313 36.9413 33.09 36.728C32.7487 36.504 32.2793 36.392 31.682 36.392C31.042 36.392 30.5353 36.504 30.162 36.728C29.7887 36.9413 29.5167 37.288 29.346 37.768C29.186 38.2373 29.1007 38.8827 29.09 39.704H34.082ZM44.5669 42.6V38.328C44.5669 37.6773 44.4335 37.2027 44.1669 36.904C43.9109 36.6053 43.4949 36.456 42.9189 36.456C42.4709 36.456 41.9802 36.5893 41.4469 36.856C40.9242 37.1227 40.5509 37.432 40.3269 37.784V42.6L40.4069 45H38.9669L39.0469 42.6V37.72L38.9669 35.4H40.0069L40.3269 36.728C40.6149 36.3013 41.0415 35.9547 41.6069 35.688C42.1829 35.4213 42.7802 35.288 43.3989 35.288C44.1669 35.288 44.7642 35.528 45.1909 36.008C45.6282 36.4773 45.8469 37.1387 45.8469 37.992V42.6L45.9269 45H44.4869L44.5669 42.6ZM53.3085 45.256C52.0498 45.256 51.1058 44.84 50.4765 44.008C49.8472 43.176 49.5325 41.9333 49.5325 40.28C49.5325 38.648 49.8578 37.3947 50.5085 36.52C51.1698 35.6453 52.1298 35.208 53.3885 35.208C54.0285 35.208 54.5458 35.2667 54.9405 35.384C55.3458 35.4907 55.7405 35.6827 56.1245 35.96L55.9005 37.096L55.6605 37.208C55.3832 36.9413 55.0792 36.7493 54.7485 36.632C54.4178 36.5147 54.0178 36.456 53.5485 36.456C52.6205 36.456 51.9432 36.7653 51.5165 37.384C51.0898 37.992 50.8765 38.9573 50.8765 40.28C50.8765 41.5813 51.0898 42.5307 51.5165 43.128C51.9432 43.7147 52.6258 44.008 53.5645 44.008C54.0978 44.008 54.5298 43.9493 54.8605 43.832C55.2018 43.704 55.5858 43.4693 56.0125 43.128L56.2845 43.256L55.9965 44.392C55.5698 44.712 55.1592 44.936 54.7645 45.064C54.3805 45.192 53.8952 45.256 53.3085 45.256ZM63.3686 45.192C61.95 45.192 60.9473 44.776 60.3606 43.944C59.774 43.112 59.4806 41.8587 59.4806 40.184C59.4806 36.824 60.7766 35.144 63.3686 35.144C64.606 35.144 65.5233 35.4747 66.1206 36.136C66.7286 36.7973 67.086 37.8853 67.1926 39.4L66.7926 40.872H60.8566C60.878 41.96 61.086 42.7547 61.4806 43.256C61.8753 43.7573 62.5793 44.008 63.5926 44.008C64.7873 44.008 65.806 43.7147 66.6486 43.128L66.9206 43.256L66.6326 44.392C66.2486 44.6693 65.806 44.872 65.3046 45C64.814 45.128 64.1686 45.192 63.3686 45.192ZM65.8326 39.704C65.822 38.8827 65.7366 38.2373 65.5766 37.768C65.4273 37.288 65.182 36.9413 64.8406 36.728C64.4993 36.504 64.03 36.392 63.4326 36.392C62.7926 36.392 62.286 36.504 61.9126 36.728C61.5393 36.9413 61.2673 37.288 61.0966 37.768C60.9366 38.2373 60.8513 38.8827 60.8406 39.704H65.8326ZM86.6892 42.6L86.7692 45H85.2972L85.3772 42.6V33.592L82.2892 45H80.0492L77.0412 33.608V42.6L77.1212 45H75.7612L75.8412 42.6V35.32L75.7612 33H78.3692L81.2172 44.232L84.2092 33H86.7692L86.6892 35.32V42.6ZM97.6481 42.68L97.7281 45H96.4321L96.3521 43.688C96.0535 44.1253 95.6161 44.488 95.0401 44.776C94.4748 45.0533 93.8935 45.192 93.2961 45.192C92.5388 45.192 91.9415 44.952 91.5041 44.472C91.0668 43.9813 90.8481 43.2933 90.8481 42.408V37.8L90.7681 35.4H92.2081L92.1281 37.8V42.072C92.1281 42.7547 92.2615 43.2507 92.5281 43.56C92.7948 43.8693 93.2108 44.024 93.7761 44.024C94.2028 44.024 94.6828 43.88 95.2161 43.592C95.7495 43.304 96.1335 42.9787 96.3681 42.616V37.8L96.2881 35.4H97.7281L97.6481 37.8V42.68ZM104.822 45.16C104.15 45.16 103.558 45.064 103.046 44.872C102.534 44.68 102.038 44.36 101.558 43.912L101.382 42.68L101.606 42.616C102.182 43.0747 102.731 43.4053 103.254 43.608C103.776 43.8107 104.304 43.912 104.838 43.912C105.51 43.912 106.011 43.8107 106.342 43.608C106.683 43.4053 106.854 43.1173 106.854 42.744C106.854 42.456 106.784 42.2213 106.646 42.04C106.518 41.848 106.267 41.656 105.894 41.464C105.52 41.2613 104.95 41.016 104.182 40.728C103.467 40.4613 102.918 40.2 102.534 39.944C102.16 39.688 101.899 39.4107 101.75 39.112C101.6 38.8027 101.526 38.4187 101.526 37.96C101.526 37.0853 101.808 36.408 102.374 35.928C102.95 35.4373 103.771 35.192 104.838 35.192C105.478 35.192 106.043 35.2667 106.534 35.416C107.035 35.5653 107.494 35.8 107.91 36.12L107.686 37.368L107.446 37.432C107.179 37.144 106.8 36.9093 106.31 36.728C105.83 36.536 105.334 36.44 104.822 36.44C104.182 36.44 103.691 36.552 103.35 36.776C103.019 37 102.854 37.3253 102.854 37.752C102.854 38.0507 102.923 38.3013 103.062 38.504C103.2 38.696 103.451 38.888 103.814 39.08C104.176 39.2613 104.731 39.48 105.478 39.736C106.171 39.9707 106.71 40.216 107.094 40.472C107.488 40.728 107.766 41.0213 107.926 41.352C108.096 41.6827 108.182 42.088 108.182 42.568C108.182 43.4 107.899 44.04 107.334 44.488C106.779 44.936 105.942 45.16 104.822 45.16ZM115.391 45.192C113.972 45.192 112.969 44.776 112.382 43.944C111.796 43.112 111.502 41.8587 111.502 40.184C111.502 36.824 112.798 35.144 115.391 35.144C116.628 35.144 117.545 35.4747 118.142 36.136C118.751 36.7973 119.108 37.8853 119.215 39.4L118.814 40.872H112.878C112.9 41.96 113.108 42.7547 113.502 43.256C113.897 43.7573 114.601 44.008 115.615 44.008C116.809 44.008 117.828 43.7147 118.67 43.128L118.943 43.256L118.655 44.392C118.271 44.6693 117.828 44.872 117.326 45C116.836 45.128 116.19 45.192 115.391 45.192ZM117.854 39.704C117.844 38.8827 117.759 38.2373 117.599 37.768C117.449 37.288 117.204 36.9413 116.863 36.728C116.521 36.504 116.052 36.392 115.454 36.392C114.814 36.392 114.308 36.504 113.934 36.728C113.561 36.9413 113.289 37.288 113.118 37.768C112.958 38.2373 112.873 38.8827 112.862 39.704H117.854ZM129.539 42.68L129.619 45H128.323L128.243 43.688C127.945 44.1253 127.507 44.488 126.931 44.776C126.366 45.0533 125.785 45.192 125.187 45.192C124.43 45.192 123.833 44.952 123.395 44.472C122.958 43.9813 122.739 43.2933 122.739 42.408V37.8L122.659 35.4H124.099L124.019 37.8V42.072C124.019 42.7547 124.153 43.2507 124.419 43.56C124.686 43.8693 125.102 44.024 125.667 44.024C126.094 44.024 126.574 43.88 127.107 43.592C127.641 43.304 128.025 42.9787 128.259 42.616V37.8L128.179 35.4H129.619L129.539 37.8V42.68ZM143.945 42.6V38.328C143.945 37.6773 143.812 37.2027 143.545 36.904C143.289 36.6053 142.873 36.456 142.297 36.456C141.945 36.456 141.556 36.5467 141.129 36.728C140.713 36.8987 140.356 37.112 140.057 37.368C140.089 37.5707 140.105 37.7787 140.105 37.992V42.6L140.185 45H138.745L138.825 42.6V38.328C138.825 37.6773 138.692 37.2027 138.425 36.904C138.169 36.6053 137.753 36.456 137.177 36.456C136.836 36.456 136.457 36.5413 136.041 36.712C135.636 36.872 135.284 37.08 134.985 37.336V42.6L135.065 45H133.625L133.705 42.6V37.72L133.625 35.4H134.665L134.889 36.36C135.22 36.0293 135.636 35.768 136.137 35.576C136.638 35.384 137.145 35.288 137.657 35.288C138.169 35.288 138.612 35.4 138.985 35.624C139.358 35.8373 139.641 36.152 139.833 36.568C140.132 36.184 140.553 35.8747 141.097 35.64C141.641 35.4053 142.201 35.288 142.777 35.288C143.545 35.288 144.142 35.528 144.569 36.008C145.006 36.4773 145.225 37.1387 145.225 37.992V42.6L145.305 45H143.865L143.945 42.6Z" fill="white"/>
</svg>
