<svg width="64" height="64" viewBox="0 0 64 64" fill="none" xmlns="http://www.w3.org/2000/svg">
<path d="M32 0L19.936 7.80165H9.6V14.4132L3.104 18.6777C1.248 19.8347 0 21.9174 0 24.3306V57.3884C0 59.1419 0.674284 60.8236 1.87452 62.0635C3.07475 63.3034 4.70261 64 6.4 64H57.6C61.152 64 64 61.0578 64 57.3884V24.3306C64 21.9174 62.752 19.8347 60.896 18.6777L54.4 14.4132V7.80165H44.064L32 0ZM16 14.4132H48V30.5455L32 40.8595L16 30.5455V14.4132ZM19.2 17.719V22.6777H44.8V17.719H19.2ZM9.6 22.281V26.4132L6.4 24.3306L9.6 22.281ZM54.4 22.281L57.6 24.3306L54.4 26.4132V22.281ZM19.2 25.9835V30.9421H44.8V25.9835H19.2Z" fill="white"/>
</svg>
